<?xml version="1.0" standalone="no"?><!DOCTYPE svg PUBLIC "-//W3C//DTD SVG 1.1//EN" "http://www.w3.org/Graphics/SVG/1.1/DTD/svg11.dtd"><svg t="1629441014456" class="icon" viewBox="0 0 1024 1024" version="1.1" xmlns="http://www.w3.org/2000/svg" p-id="3193" xmlns:xlink="http://www.w3.org/1999/xlink" width="64" height="64"><defs><style type="text/css"></style></defs><path d="M330.3424 549.8368s89.7536 9.1648 99.5328-300.6976l35.2768-47.0528 25.4976 35.584s73.5232 231.8848 218.624 312.2176c-15.6672 33.2288-50.9952 43.5712-50.9952 43.5712s-148.992-127.3856-183.296-271.9744c0 107.8784-41.1648 249.0368-83.3536 267.4176s-61.2864-39.0656-61.2864-39.0656z" fill="#CF9782" p-id="3194"></path><path d="M658.3296 608.8192c-3.4816 0-6.912-1.1776-9.6768-3.4304-5.2224-4.2496-109.312-89.856-163.6352-200.3968-12.7488 89.344-47.0016 181.504-87.4496 198.2976-14.592 6.0416-29.2864 6.144-42.496 0.256-26.4192-11.776-37.9904-42.9568-39.2192-46.4896-1.8432-5.1712-1.4336-11.0592 2.1504-15.2064 3.5328-4.096 8.2944-6.0928 13.5168-5.2224 20.992-0.5632 75.6224-50.0736 82.9952-271.4112 0.1024-3.2768 1.28-6.4 3.2768-9.0112l35.2768-44.8c2.9696-3.7376 7.2704-5.7856 12.2368-5.8368 4.7616 0.0512 9.216 2.304 12.0832 6.144l25.4976 33.8944c0.9728 1.3312 1.792 2.816 2.304 4.352 0.7168 2.1504 73.3696 215.8592 211.2 288.512 7.3728 3.8912 10.2912 12.9536 6.6048 20.4288-18.5344 37.376-58.9312 48.9984-60.6208 49.4592-1.28 0.256-2.6624 0.4608-4.0448 0.4608z m-305.5616-47.0016c3.8912 5.5808 8.96 11.008 14.8992 13.6704 5.4784 2.4064 11.264 2.2528 18.1248-0.6144 31.5904-13.1072 73.8816-134.3488 73.8816-240.384 0-7.7824 5.7856-14.2848 13.4656-15.2576 7.68-0.9728 14.8992 3.9936 16.7936 11.52 28.5696 114.7392 142.6432 219.9552 171.4688 245.0944 6.912-3.072 17.5104-8.96 26.0096-18.688-132.6592-80.64-201.8304-270.2336-210.4832-295.168l-12.032-15.9744-19.8656 25.1904c-6.7072 181.8112-44.4416 252.0576-75.1104 278.9888-6.0928 5.376-11.9296 9.0624-17.152 11.6224z m-20.9408-25.1904z" fill="#000F04" p-id="3195"></path><path d="M459.3664 244.3776s8.3968-84.9408 100.5056-100.5056 124.416 45.4656 167.4752 8.3968c26.3168 51.456 59.8016 168.704-62.208 202.1888s-198.5536-83.7632-205.7728-110.08z" fill="#BFE5BD" p-id="3196"></path><path d="M735.8976 170.9056c-5.0688 54.5792-26.3168 125.7984-102.0416 132.1984-124.16 10.496-152.9344-63.6928-159.1296-95.232-2.1504 2.1504-4.4544 4.352-6.8096 6.5536-7.1168 16.8448-8.448 29.952-8.448 29.952 7.168 26.3168 83.7632 143.5648 205.7728 110.08 108.9024-29.9008 93.8496-126.5664 70.656-183.552z" fill="#A2DD9E" p-id="3197"></path><path d="M617.216 380.5184c-29.2864 0-57.7024-7.7824-84.8896-23.296-53.6064-30.5152-86.6304-82.8416-92.4672-104.0896-0.512-1.792-0.6656-3.6864-0.4608-5.5296 3.2768-33.4336 31.1808-100.3008 113.2032-114.1248 48.896-8.2944 83.0976 3.6352 108.032 12.3392 26.0608 9.0624 37.2736 12.2368 51.968-0.4096 3.584-3.072 8.3456-4.3008 13.0048-3.4304 4.608 0.9216 8.5504 3.8912 10.7008 8.0896 8.9088 17.408 29.2864 63.0784 26.5216 111.4624-0.512 8.448-7.7824 14.7968-16.2304 14.4384a15.36 15.36 0 0 1-14.4384-16.2304c1.792-30.7712-8.192-61.3888-16.0768-80.2816-22.6304 10.24-44.3904 2.7136-65.536-4.6592-24.2176-8.448-51.712-18.0224-92.8256-11.0592-70.4 11.8784-84.8896 70.144-87.296 83.9168 5.632 14.08 31.8464 57.1392 77.056 82.8928 34.304 19.5584 70.9632 24.1664 108.9024 13.7728 21.8624-5.9904 39.2192-15.2576 51.6096-27.4432a15.36 15.36 0 0 1 21.7088 0.1536 15.36 15.36 0 0 1-0.1536 21.7088c-16.128 15.9232-38.0416 27.7504-65.024 35.1744-15.9744 4.4544-31.7952 6.6048-47.3088 6.6048z" fill="#000F04" p-id="3198"></path><path d="M483.328 269.5168s17.9712-114.8416-72.96-135.168-117.248-22.9376-135.168-44.3904c-50.2272 32.4096-111.2576 158.0032-9.5744 214.272s206.8992-1.2288 217.7024-34.7136z" fill="#BFE5BD" p-id="3199"></path><path d="M476.0064 217.1904c-27.392 48.2816-85.2992 57.5488-122.5728 55.552-94.72-12.544-118.3744-81.8688-123.136-130.2528-27.5968 51.4048-34.7136 122.9824 35.2768 161.6896 101.6832 56.2176 207.0016-1.1776 217.7536-34.7136 0 0 0.3072-2.1504 0.6656-5.8368-1.7408-15.2064-4.3008-31.3344-7.9872-46.4384z" fill="#A2DD9E" p-id="3200"></path><path d="M351.1296 347.8528c-28.928 0-62.7712-6.1952-97.6896-25.4976-50.176-27.7504-61.9008-68.8128-62.8736-98.4064-1.9456-58.0608 35.6352-119.04 71.5776-142.2336 6.5024-4.1984 15.1552-2.8672 20.1216 3.072 11.3664 13.568 27.9552 17.664 89.5488 31.0784 11.0592 2.4064 23.3984 5.0688 37.2224 8.192C492.032 142.592 500.7872 231.936 493.824 276.5824c-0.1024 0.768-0.3072 1.5872-0.5632 2.3552-6.4512 20.0704-31.7952 41.0112-66.2016 54.6304a211.10784 211.10784 0 0 1-75.9296 14.2848zM269.2608 114.8416c-25.344 22.4768-49.3568 67.9424-48.0256 108.032 1.0752 31.488 16.896 55.9104 47.0528 72.5504 64.6144 35.7376 124.6208 18.5344 147.456 9.5232 27.9552-11.1104 44.4416-26.4192 47.872-34.5088 1.6384-12.6976 10.3424-100.4544-61.3376-116.48-13.7728-3.072-26.0608-5.7344-37.0176-8.1408-52.6848-11.4176-78.2336-16.9984-96-30.976z m209.3568 159.3344z m0 0z" fill="#000F04" p-id="3201"></path><path d="M670.6176 570.368s-161.1776-48.5376-155.8016 143.8208c5.376 192.3584 247.7056 165.9904 273.8176 158.72 26.112-7.2704 180.7872-58.4192 128.6144-267.6736-46.2336-185.7536-239.1552-119.4496-246.6304-34.8672z" fill="#FF768D" p-id="3202"></path><path d="M709.3248 807.424c-136.448-43.4176-122.7264-181.2992-110.2336-239.4112-42.2912 9.3184-87.0912 43.264-84.224 146.176 5.376 192.3584 247.7056 165.9904 273.8176 158.72 20.48-5.6832 120.1152-38.4512 136.9088-153.4464-63.0784 87.552-163.584 100.864-216.2688 87.9616z" fill="#E8627F" p-id="3203"></path><path d="M727.9104 893.4912c-48.64 0-114.2784-8.448-162.9184-44.3904-41.8816-30.9248-63.8976-76.1344-65.536-134.4512-1.8432-66.4064 15.1552-113.8176 50.4832-140.8512 37.376-28.5696 84.48-25.8048 108.9024-21.7088 13.7216-41.8304 62.8224-76.544 118.4256-80.896 75.1104-5.888 133.12 42.8032 154.9312 130.3552 12.0832 48.4352 14.2848 92.672 6.656 131.4304a15.30368 15.30368 0 0 1-18.0224 12.0832 15.32928 15.32928 0 0 1-12.0832-18.0224c6.7584-34.304 4.6592-74.0352-6.2976-118.016-25.7536-103.3728-94.4128-109.3632-122.7264-107.1616-47.8208 3.7376-90.7264 35.7888-93.7472 69.9392-0.4096 4.608-2.8672 8.7552-6.7072 11.3664-3.84 2.6112-8.6016 3.328-13.056 1.9968-0.5632-0.1536-58.5728-16.8448-97.6896 13.2096-26.9824 20.736-39.8848 59.5968-38.2976 115.456 1.3312 48.384 19.2 85.6064 53.0944 110.592 70.7584 52.224 187.1872 37.632 201.2672 33.7408 15.4112-4.3008 68.3008-22.2208 100.9152-72.7552a15.36512 15.36512 0 0 1 25.8048 16.6912c-38.5536 59.5968-100.4544 80.64-118.528 85.6576-6.7584 1.8432-31.8976 5.7344-64.8704 5.7344z" fill="#000F04" p-id="3204"></path><path d="M380.5696 590.6432s-40.192-89.0368-154.4704-57.4464-180.992 282.7776 69.4784 378.4704c64 9.216 282.0608-7.5776 256.8192-211.9168-23.7568-192.512-171.8272-109.1072-171.8272-109.1072z" fill="#FF768D" p-id="3205"></path><path d="M534.3744 816.0256c-0.7168-2.8672-1.3824-5.7344-2.2016-8.6016-339.8656 169.9328-359.3728-240.384-359.3728-240.384-74.496 79.4624-84.6848 265.4208 122.7776 344.6272 48.7424 7.0144 186.88-1.0752 238.7968-95.6416z" fill="#E8627F" p-id="3206"></path><path d="M325.4784 928.768c-13.5168 0-24.576-0.8192-32.1024-1.8944-1.1264-0.1536-2.2528-0.4608-3.2768-0.8704-118.3744-45.2096-186.112-134.5536-181.1456-238.9504 3.84-80.6912 51.4048-151.6032 113.0496-168.6528 96.6144-26.7264 146.4832 26.2144 164.5568 52.4288 22.4768-9.4208 68.9664-23.6544 110.7456-2.56 38.5024 19.4048 62.1568 63.0272 70.4 129.6384 8.4992 68.6592-8.1408 124.0064-49.3568 164.4032-55.808 54.5792-141.6704 66.4576-192.8704 66.4576z m-26.0608-32.1024c41.3696 5.376 141.1584-1.2288 197.376-56.32 34.048-33.3824 47.616-80.0256 40.3968-138.7008-6.8608-55.808-24.9856-91.4432-53.76-105.984-41.9328-21.1968-94.7712 8.0896-95.2832 8.3456-3.7376 2.0992-8.2432 2.56-12.3392 1.2288s-7.424-4.3008-9.1648-8.2432c-1.5872-3.3792-37.0176-76.4928-136.3968-48.9984-48.4352 13.4144-87.3984 73.8304-90.5728 140.4928-2.0992 43.3152 9.4208 150.016 159.744 208.1792z" fill="#000F04" p-id="3207"></path><path d="M457.5744 822.784c-4.1984 0-8.3968-1.7408-11.4176-5.12-5.6832-6.2976-5.12-16.0256 1.1776-21.7088 23.6544-21.1968 25.9072-43.3152 24.832-64.0512a15.2832 15.2832 0 0 1 14.5408-16.128 15.28832 15.28832 0 0 1 16.128 14.5408c1.3312 25.3952-1.4336 58.4704-35.0208 88.5248-2.9184 2.6112-6.6048 3.9424-10.24 3.9424zM477.2864 692.4288c-6.4512 0-12.4416-4.096-14.592-10.5984-0.512-1.5872-0.8704-2.7136-1.1776-3.4304-1.7408-2.8672-2.5088-6.2976-2.0992-9.8304 0.9216-7.1168 6.656-12.6976 13.824-13.4144 12.5952-1.2288 16.384 10.24 18.6368 17.1008a15.37536 15.37536 0 0 1-14.592 20.1728zM857.856 679.3216h-0.1536a15.33952 15.33952 0 0 1-15.2064-15.5136c0.4096-43.3152-8.5504-60.2112-17.408-71.0144a15.36 15.36 0 0 1 23.7568-19.456c17.4592 21.3504 24.7296 48.4864 24.32 90.7264a15.33952 15.33952 0 0 1-15.3088 15.2576zM803.5328 571.904c-1.792 0-3.6352-0.3072-5.376-0.9728-2.4064-0.9216-3.8912-1.2288-3.8912-1.2288-8.2432-1.6896-13.7216-9.6768-12.1344-17.92 1.536-8.2432 9.3696-13.7216 17.6128-12.288 0.9216 0.1536 4.3008 0.8192 9.216 2.6624 7.936 2.9696 11.9808 11.8272 8.96 19.7632a15.36 15.36 0 0 1-14.3872 9.984z" fill="#000F04" p-id="3208"></path></svg>