<svg xmlns="http://www.w3.org/2000/svg" xmlns:xlink="http://www.w3.org/1999/xlink" viewBox="0 0 545.21 500.58"><defs><style>.cls-1{opacity:0.78;}.cls-2{fill:#231815;}.cls-3{fill:#c24a26;}.cls-4{fill:url(#未命名的渐变);}.cls-5{fill:#80acdb;}.cls-6{fill:#769dc9;}.cls-7{fill:#a8cae3;}.cls-8{fill:#d1dae7;}.cls-9{fill:#c9d6e6;}.cls-10{fill:url(#未命名的渐变_2);}.cls-11{opacity:0.53;}.cls-12,.cls-22{fill:#fff;}.cls-13,.cls-15{opacity:0.11;}.cls-14{fill:#2976bc;}.cls-15{fill:#4ba2da;}.cls-15,.cls-22,.cls-23{isolation:isolate;}.cls-16{fill:#e95619;}.cls-17,.cls-18,.cls-19{fill:#fbfdff;}.cls-18{fill-opacity:0.57;}.cls-19{fill-opacity:0.71;}.cls-20{fill:#e5b537;}.cls-21{fill:#291205;}.cls-22{opacity:0.54;}.cls-23{fill:#001829;opacity:0.03;}.cls-24{fill:#f0f0f0;}.cls-25{fill:#dbdcdc;}.cls-26{fill:#090909;}.cls-27{fill:none;stroke:#090909;stroke-miterlimit:10;}.cls-28{fill:#dfe0e0;}.cls-29{fill:#ee8031;}.cls-30{fill:#f6d46b;}.cls-31{fill:#f3ddea;}</style><radialGradient id="未命名的渐变" cx="158.22" cy="603.82" r="136.37" gradientTransform="matrix(0.65, 0.76, 0.65, -0.55, -372.6, 338.47)" gradientUnits="userSpaceOnUse"><stop offset="0.12" stop-color="#fff"/><stop offset="0.62" stop-color="#fdfeff"/><stop offset="0.67" stop-color="#fcfdff"/><stop offset="0.74" stop-color="#fafcff"/><stop offset="0.92" stop-color="#eff8fd"/><stop offset="0.93" stop-color="#e5f4fc"/><stop offset="0.94" stop-color="#c9e9f9"/><stop offset="0.96" stop-color="#a7dbf6"/></radialGradient><linearGradient id="未命名的渐变_2" x1="-52.47" y1="423.93" x2="141.67" y2="710.07" gradientTransform="matrix(0.96, 0.28, 0.28, -0.96, -134.77, 674.17)" gradientUnits="userSpaceOnUse"><stop offset="0.06" stop-color="#1e58a6"/><stop offset="0.15" stop-color="#195caa"/><stop offset="0.21" stop-color="#1263af"/><stop offset="0.25" stop-color="#0a69b3"/><stop offset="0.27" stop-color="#036eb7"/><stop offset="0.28" stop-color="#0c73b9"/><stop offset="0.3" stop-color="#2380c0"/><stop offset="0.33" stop-color="#4996cb"/><stop offset="0.35" stop-color="#7eb5da"/><stop offset="0.38" stop-color="#c1dbed"/><stop offset="0.41" stop-color="#fff"/><stop offset="0.62" stop-color="#daf0fb"/><stop offset="0.81" stop-color="#bee4f8"/><stop offset="0.96" stop-color="#a7dbf6"/></linearGradient></defs><g id="图层_2" data-name="图层 2"><g id="图层_1-2" data-name="图层 1"><g id="图层_2-2" data-name="图层 2"><g id="图层_1-2-2" data-name="图层 1-2"><g class="cls-1"><path class="cls-2" d="M279.63,121.92s-5.51-23.54,27-18.07,84,20.67,112.22,63.39l1.65,3.87a6.41,6.41,0,0,0,2.72,3l4.33,2.45a4.63,4.63,0,0,1,2.3,4.89c-1.06,5.58-3.67,16.79-8.11,21.19-6,6-16.71,6-16.71,6l-99.06-19.85C227,171.13,279.63,121.92,279.63,121.92Z"/><path class="cls-3" d="M282.1,126.09S277,103.32,308,108.34s79.93,19.35,106.57,60.58l1.54,3.73a6,6,0,0,0,2.58,2.92l4.1,2.34a4.44,4.44,0,0,1,2.16,4.72c-1.06,5.41-3.64,16.3-7.93,20.61-5.8,5.84-16,5.92-16,5.92l-94.36-18.42C231.43,174.26,282.1,126.09,282.1,126.09Z"/><path class="cls-4" d="M243.83,93.24S220.22,147.93,158.32,193s-87.77,53.4-87.77,53.4S37.6,215,24.63,195.11-28.31,90.35,33.88,28.81,172,22.22,184.17,30.46C197.65,39.59,237.45,83.93,243.83,93.24Z"/><path class="cls-2" d="M275.64,139.6c4.6,1.4,20.25,7.22,24.43,23.5a2,2,0,0,0,1.64,1.51c4,.52,15.7,2.9,18.8,12.91a2,2,0,0,0,1.78,1.46c10.08.56,71.78,5,114.38,31.92,15.1,8.69,26.43,16.54,28.85,18.25a1.9,1.9,0,0,0,1.08.35c3.57.08,22.43.28,38.2-3.42,17.49-4.11,15.47-6.42,25.21-9,8.38-2.18,12.43,1.84,13.71,3.67s1.48,5.59,1.49,6c0,2.73-.41,11.67-11,18.46-12,7.73-28.14,14.51-34.51,17.2s-5.51.79-5.51.79,10.92,17.19,10.08,39.26c-1.76,46.16-16.8,65.69-18.36,67.61a1.33,1.33,0,0,0-.22.34c-1.17,2.33-13.45,25.91-36.93,34.69,0,0-8.16,3.25-.58,3.4s26.13,2.4,40,17.35c9.24,10,11.6,23,12.14,30.57a31.88,31.88,0,0,1-1.08,10.69c-1.39,5.15-2.95,11.66-4.95,15.12-2.38,4.12-5.94,6.41-8,6.24a2,2,0,0,0-2,1c-1.34,2.89-4.42,8.57-8.67,10-5.55,1.85-20.87,2.18-25.35-6a1.88,1.88,0,0,0-1.72-1c-3.95.2-16.47.11-19.6-8.37-1.61-4.39-2.56-7.56-2.64-10a2,2,0,0,0-2-1.91,1.94,1.94,0,0,0-1,.3c-3.31,2.09-7.57,4.09-9.95,2.75-4.28-2.41-11.17-7.72-11.63-12.29-.21-1.89-.32-3.28-.38-4.26a2,2,0,0,0-2-1.87c-2,0-5.12-.35-6.9-2.26a1.8,1.8,0,0,0-1.31-.64c-3.35,0-16.43-.33-23.2-3.82-7.81-4-30.32-13.83-33.51-23.34L332.91,423a2,2,0,0,0-1.47-1.16c-7.2-1.25-50.25-9-77.08-19.55-28.11-11-51.94-20-53.88-20.7a.84.84,0,0,1-.27-.13l-1.54-.86a2,2,0,0,0-2.65.7c-1.65,2.69-6.83,7.16-22.66,3.32-18.07-4.4-32.36-15.36-36.58-18.85a2,2,0,0,0-2.55,0c-3.58,3.07-14.09,11.21-22.16,8.52-9.28-3.12-20.47-14-24.94-18a2,2,0,0,0-1.71-.46c-3,.6-12.42,2-15.63-2.7-3.85-5.65-6.6-16.94-.45-22.92l3.17-3.63s-6.74,2.18-9.55-5.7S63,304,67.43,301.26a19.78,19.78,0,0,1,8.1-2.93,27.36,27.36,0,0,0,6.35-2.1c2.48-1.34,125.11-76.84,191.68-156A1.94,1.94,0,0,1,275.64,139.6Z"/><path class="cls-5" d="M276.87,145.94c4.43,1.34,19.44,6.92,23.47,22.58a1.89,1.89,0,0,0,1.58,1.44c3.8.51,15.07,2.8,18.05,12.41a1.93,1.93,0,0,0,1.71,1.39c9.68.54,68.95,4.82,109.87,30.67,14.51,8.37,25.39,15.88,27.72,17.52a1.82,1.82,0,0,0,1,.35c3.43.07,20.71,2.59,35.85-1,16.8-3.94,19.45-4.45,27-7.82,8.71-3.9,14.56-1.73,16-.2,3,3,1.77,6.2,1.08,8.14-1,2.79-4.19,7.68-14.3,14.23-11.52,7.42-28.92,12.85-35,15.43s-4.09,3.57-4.09,3.57,10.47,16.5,9.68,37.69c-1.69,44.34-14.7,62.25-16.2,64.1-.09.11-.85,1.45-.92,1.58-1.12,2.24-5.25,19.55-33.42,35.27,0,0-16.49,8.45-9.22,8.6s30.71-3.61,44,10.75c8.88,9.58,13.76,19.43,14.28,26.69.25,3.49,1,7.53.07,10.87-1.34,4.94.6,7.6-4.68,15.36-2.58,3.77-9.25,5.66-11.24,5.5a1.87,1.87,0,0,0-1.95,1c-1.27,2.79-1.31,9.92-5.4,11.29-5.32,1.77-14.24,2.69-18.54-5.21a1.8,1.8,0,0,0-1.65-1c-3.8.18-17,4.13-20-4-1.55-4.19-2.09-10.94-2.18-13.32-.05-1.45-6.55-2.57-7.78-1.8-3.19,2-10.28,1.55-12.57.27-4.12-2.32-3.78-5.8-4.26-10.19a31.72,31.72,0,0,0-.37-4.09c-1.61-4.85-7.79-3.41-8.79-3.42-1.93,0-4.89-.34-6.63-2.17a1.8,1.8,0,0,0-1.26-.62c-3.22,0-15.79-.31-22.29-3.66C358,440.26,339.46,432,336.4,422.91l-1.52-3.49a1.85,1.85,0,0,0-1.39-1.12c-6.93-1.2-51.34-9.82-77.09-19.95-27-10.62-49.9-19.19-51.76-19.89a1.23,1.23,0,0,1-.26-.12l-4.48-2a3.91,3.91,0,0,0-3.58.55c-2.3,2.09-2.52,8.15-17.73,4.45-17.36-4.19-38.65-17.4-42.72-20.77a1.89,1.89,0,0,0-2.45,0c-3.43,2.95-11.74,10.27-16.23,10-9.4-.57-21.88-15.36-26.16-19.15a1.91,1.91,0,0,0-1.65-.44c-2.9.57-9.95,2.57-13-2a15.92,15.92,0,0,1,2.32-20l2.56-5.52s-7.76.18-8.69-3.42c-2-7.78.06-16.27,4.3-18.85a18.69,18.69,0,0,1,7.78-2.79,26.77,26.77,0,0,0,6.09-2c2.38-1.3,120.19-73.82,184.13-149.88A1.88,1.88,0,0,1,276.87,145.94Z"/><path class="cls-6" d="M490.35,476.68c-2.59,3.77-9.25,5.66-11.24,5.52a1.91,1.91,0,0,0-2,1c-1.28,2.79-1.3,9.93-5.39,11.31-5.33,1.76-14.24,2.68-18.56-5.22a1.76,1.76,0,0,0-1.64-1c-3.79.18-17,4.14-20-4-1.54-4.19-2.09-10.94-2.18-13.33-.05-1.44-6.54-2.56-7.79-1.81-3.18,2-10.27,1.57-12.56.27-4.1-2.31-3.8-5.78-4.26-10.18a36.83,36.83,0,0,0-.36-4.09c-1.62-4.89-7.78-3.4-8.8-3.41-1.92,0-4.89-.34-6.63-2.18a1.93,1.93,0,0,0-1.26-.62c-3.21,0-15.78-.31-22.28-3.66-7.5-3.86-26.09-12.08-29.14-21.23l-1.52-3.49a1.9,1.9,0,0,0-1.39-1.11c-6.94-1.2-51.34-9.82-77.11-20-27-10.65-49.88-19.2-51.75-19.9a1.31,1.31,0,0,1-.27-.12l-4.47-2a3.92,3.92,0,0,0-3.59.53c-2.3,2.09-2.51,8.15-17.74,4.47-17.35-4.25-38.64-17.4-42.72-20.77a1.9,1.9,0,0,0-2.44,0c-3.42,3-11.73,10.28-16.24,10-9.37-.56-21.86-15.35-26.13-19.14a2.1,2.1,0,0,0-1.67-.44c-2.91.57-10,2.58-13-2a16,16,0,0,1,2.31-20l2.58-5.51s-7.78.19-8.7-3.42c-2-7.79.06-16.27,4.31-18.85a18.69,18.69,0,0,1,7.78-2.79,26.66,26.66,0,0,0,6.09-2.06s40.81,18,43,53c0,0,53,20.14,74.78,10.87,23.39-10,24.07-13.34,24.29-14.07-.27,1.34-6,11.76-12.84,15.19-7.14,3.59,122.37,52.45,146.11,36.61a85.25,85.25,0,0,0,14-11.46s.07-.06.08-.08-.05.06-.05.08c-8.22,16.48-15.6,39.55,1.18,48.72,27.37,15,33.8,36.3,60.33,31.56s32.58-9.77,36.3-18.38c2.51-5.87,3.37-17.77,3.68-24.78,8.37,9.27,12.92,18.74,13.46,25.77.25,3.49,1,7.54,0,10.88C493.67,466.31,495.62,469,490.35,476.68Z"/><path class="cls-2" d="M422.17,468.06s25.48-2.94,46.26-10.61c0,0,13-6.28,14.95-7.11,0,0-11.17,8.38-17.45,11.1-16.52,7.11-34.64,9.47-39.09,9.61S422.17,468.06,422.17,468.06Z"/><path class="cls-7" d="M417.12,456.5c-11.17-2.17-67.71,2.41-50.2-73.5,1.87-8.12,2.61-15.46,3.94-21.82a89.35,89.35,0,0,0-9.29,6.5l7-23.63S342,358.46,340.38,381.39l-3.66,9.77-89.35-29.31s-8.81.83-1.16-13.48,11.9-32.46,11.9-32.46-.83-19.08-8.76-21.83-2.65,14.09-2.65,14.09-2.09,16.12-2.79,13.26-18.84,34-38.48,30.87-26.36-4.76-26.36-4.76-2.7,12.92-10.36,8-10.81-29.1-19.12-31.93-15.1-13.27-10.94-13.16,45.48,13.43,45.48,13.43l-.76-25.72s15.83-20.07,13.38-20.8-6.63-4.63-17.31-3.2-12.85,6.08-14.88-6.33,72.07-55.54,72.07-55.54l25.47-11.51s10.52-9.8,9.8,2.91c0,0,24.48-41.48,29.32-21.79s9.07,23.27,9.07,23.27L315.42,185s110.63,11.38,148.33,56.11c25.65,30.44,30.66,72.65,21.58,98.15s-31.55,44.91-37.95,20.18l-3.81-10.3s-2.46,4.44-4.89,4.89c0,0,5.23,37.69-19.85,54.3s-23.67,19.47-23.67,19.47,6.23-1.79,25.41-8.69,43.9-11.74,53.2,11.93S428.28,458.63,417.12,456.5Z"/><path class="cls-8" d="M303.84,192.33c-4.72-18.19-27.52,19.9-27.52,19.9.61-11.73-9.25-2.75-9.25-2.75L243.13,220s-69.58,39.35-67.56,50.78a1.28,1.28,0,0,0,.07.34c-4.45,1.08-5.94.81-7.37-7.9-2-12.39,72-55.57,72-55.57l25.47-11.51s10.53-9.81,9.81,2.9c0,0,24.48-41.47,29.31-21.78S314,200.49,314,200.49l5.14-20.2s110.62,11.37,148.32,56.09C493.08,266.81,498.09,309,489,334.53c-6.68,18.77-20.63,34.24-30,31.25,7.34-4.18,15.16-14.86,19.55-27.07,8.37-23.45,10.94-65.41-13.43-93.64-35.86-41.5-140.26-52.76-140.26-52.76l-12.28,21.57S308.52,210.55,303.84,192.33Z"/><path class="cls-9" d="M158.67,324.73c7.4,2.52,10.6,22.52,17.05,28.62-1.58,1.4-3.7,1.91-6.44.16-7.68-4.94-10.81-29.1-19.12-31.94s-15.11-13.26-10.95-13.16,45.5,13.48,45.5,13.48L184,296.16s8.19-10.4,11.87-16.48c3.59.81,5.62,2.31,7,2.72,2.31.7-12.47,19.1-12.47,19.1l.88,23.77s-39.08-12.64-43-12.73S150.83,322,158.67,324.73Z"/><path class="cls-9" d="M249.92,348.24c-4.29,7.94-2.95,10.83-1.24,11.86l-.75-.24s-8.81.83-1.17-13.47,11.91-32.47,11.91-32.47a58.66,58.66,0,0,0-2-12.05c3.71,6,4.25,16.5,4.25,16.5S257.08,335.11,249.92,348.24Z"/><path class="cls-9" d="M359.52,348.72c-7.79,6.37-17.59,17-18.57,30.67l-3.66,9.78-86.86-28.5h.7l84.46,27.63,3.41-9C339.93,364.76,352.05,354,359.52,348.72Z"/><path class="cls-9" d="M367.59,360.87c-.07.31-.13.61-.17.92-3.35,2.28-5.3,3.92-5.3,3.92l.47-1.61C364,363.14,365.64,362,367.59,360.87Z"/><path class="cls-9" d="M413.14,404.62c23.55-15.12,18.37-49.95,18.37-49.95,2.28-.38,4.58-4.45,4.58-4.45l3.66,9.52h0c.09,12-2.34,34.63-20.3,46.5a203.2,203.2,0,0,0-17.77,12.82c-7.86,2.58-10.7,3.36-10.7,3.36S389.58,419.74,413.14,404.62Z"/><path class="cls-9" d="M417.71,454.47c-7.24-1.39-33.56,0-46.41-19.49,12.94,13.74,34.29,12.89,40.55,14.12,10.54,2.09,62.18-1.22,53.25-23.14-3.14-7.68-8.06-12.15-13.89-14.42,9.85.82,18.48,5.49,23.16,17.45C483.67,452.68,428.88,456.63,417.71,454.47Z"/><path class="cls-9" d="M195.84,279.7a26.25,26.25,0,0,0-9.31-.34c-10,1.18-12,5.42-14-5.59a64,64,0,0,1,7.52-1.58c10.68-1.4,14.85,2.48,17.3,3.2C198,275.59,197.27,277.3,195.84,279.7Z"/><path class="cls-9" d="M250.14,311.16s-1.89,14.86-2.54,12.21-17.55,31.26-36.1,28.22S186.59,347,186.59,347s-2.45,11.9-9.7,7.29a9,9,0,0,1-1.19-.95c2.79-2.54,3.91-7.84,3.91-7.84s6.74,1.63,26.36,4.77,37.79-33.75,38.48-30.87,2.79-13.26,2.79-13.26-5.3-16.82,2.65-14.09c3.42,1.19,5.51,5.37,6.78,9.77a8.5,8.5,0,0,0-4.14-3.69C245,295.62,250.14,311.16,250.14,311.16Z"/><path class="cls-9" d="M248.68,360.09l1.7.56A4.49,4.49,0,0,1,248.68,360.09Z"/><path class="cls-9" d="M359.61,348.65a69.43,69.43,0,0,1,9.51-6.63l-6.53,22c-2.37,1.64-3.74,2.75-3.74,2.75l6.43-21.75A57.71,57.71,0,0,0,359.61,348.65Z"/><path class="cls-9" d="M371.3,435c-8.85-9.4-13.79-25.63-7.27-54,1.63-7.11,2.29-13.54,3.39-19.19,1.18-.8,2.54-1.69,4-2.62-1.33,6.36-2.06,13.69-3.94,21.83C361.35,407.67,364.36,424.39,371.3,435Z"/><path class="cls-9" d="M439.75,359.74a67.38,67.38,0,0,0-.44-7.78c2.42-.42,4.88-4.88,4.88-4.88l3.77,10.3c1.7,6.55,4.52,10,7.92,11.06-6.78,3.87-13.17,2.22-16.16-8.7Z"/><path class="cls-9" d="M451.21,411.54c-9.66-.83-20.55,2.09-30,5.5-19.17,6.89-25.41,8.69-25.41,8.69s-.61-1.23,5.9-6.65c3.4-1.13,7.74-2.59,13.21-4.48C426.57,410.57,440.44,407.33,451.21,411.54Z"/><path class="cls-2" d="M455.14,338.22s1.16,8.69.51,13.58c-.39,2.86-1.36,3.73-1.36,3.73s-8.58-11.53-19.14-17.8-3.56-.06-3.56-.06,25.4,19.05,22,37.16-19.26,34.84-27.88,41.88A83.25,83.25,0,0,1,406.84,428s-4.88,3.54,1.82,1.1,17.45-7.26,22.26-12-2.1,7-2.1,7,.15,1.9,3.27-1.88,5.58-11.63,5.58-11.63l9.4-9.9s16-22.68,11.45-38.17c-1.47-6.14-1.18-5.2-1.18-5.2A30.41,30.41,0,0,0,455.14,338.22Z"/><path class="cls-2" d="M465.19,235s23.49,28.95,26.49,38.14,5.3-2.56,5.3-2.56-10.14-26.14-25.27-36.74S465.19,235,465.19,235Z"/><path class="cls-2" d="M252.5,329.93c-6.36,6.46-29.42,26.53-42.57,32.81s-22.46-2.22-22.46-2.22-9.31,7.81-16.05,7.27-25.28-6.64-29.28-17.81-3.38-17-8.65-22.84-14.54-14.59-10-21.1c0,0,3.19-15,24.86-8.77,7.93,2.27,14,4,18.41,5.14,2.83.77,5.46-1,6.56-3.66v-.09c0-.06.07-.15.12-.24a5.37,5.37,0,0,0-.7-5.44,3.42,3.42,0,0,1-.44-3.89c1.75-3.49,15.8-17.61,20.55-18.28s-.61,1.82-.61,1.82A37.27,37.27,0,0,0,179,285.36c-4.43,7.68,2.62,2.79,3.72,2a4,4,0,0,0,.34-.22c1.79-1.06,16.29-9.5,27.16-6.43,11.57,3.3,12,4.28,12,4.28s.12,2-6.94-.7c-6.54-2.53-20.9.94-22.83,1.4l-.44.12c-1.86.67-15.35,5.52-10.21,7.91,4.94,2.31,14.82,5.31,16.79,5.89a4.34,4.34,0,0,0,.62.16c1,.18,4.55.88,3.6,1.81-1.09,1.1-5.13.7-5.13.7l-16.11-3.92s-7-.27-1.88,4.45,24,12.1,24,12.1,4.38,2.37,2.79,2.6-20.71-5.58-20.71-5.58l-40.32-11.21s-22.65-7.88-15.76,17.22c1.16,4.23,3.24,6,4.76,6.77a5.5,5.5,0,0,1,2.89,3.15c.93,2.66,2.71,8,6.06,18.7,4.51,14.39,26.53,16.61,33.84,17a5.43,5.43,0,0,0,4-1.5l5.49-5.25.49-.45,3.61-.1A12.3,12.3,0,0,0,195,358c8.37,3.15,22.4-5.92,35.78-14.44s17.72-23.5,18.47-26.19,2.31-1.78,2.31-1.78c2.51,3.31-1.53,10.06-1.53,10.06,5.74-1.55,11.25-12.76,11.25-12.76C265.09,315.2,258.06,324.3,252.5,329.93Z"/><path class="cls-2" d="M86.31,295.53s35.53,5.38,40.14,18.73l-2.65.76s-24.51-18-39.16-16.57Z"/><path class="cls-2" d="M81.09,310.45s1.74,35.6,20.42,47.55,7.68,3,7.68,3-23-11.58-26.08-45C83.11,316,82,309.52,81.09,310.45Z"/><path class="cls-2" d="M320.5,183.23s.52,24.58-2.13,30.65,3-2.53,3-2.53,7.77-18.95,3.06-27.41S320.5,183.23,320.5,183.23Z"/><path class="cls-2" d="M300.2,174A74.66,74.66,0,0,1,296,193.88a49,49,0,0,1-3.82,8.33c-3.56,5.59,3.4-2,3.4-2s10.9-20.87,7.56-30C301.4,165.68,300.47,171,300.2,174Z"/><path class="cls-9" d="M487.91,324.75a29.79,29.79,0,0,1-16.32,23c-8.82,4.23-16.06,2.14-17.86-13.67-4-34.81-38.07-60-55.77-70.82a30.28,30.28,0,0,0-20.18-4.15c-15.86,2.28-46.19,3.49-50.26-19.54C324.8,224.32,338,210.87,352.27,201a30.48,30.48,0,0,1,25.17-4.33c31.68,8.51,67.19,22.39,85.53,44.11C484.27,266.11,491.33,299.54,487.91,324.75Z"/><path class="cls-9" d="M471.71,233.83s2.8.61,8.05,7.44c0,0,37.19-6.24,51.26-15.21,0,0,7.35-6.18-3.35-4.12,0,0-17.66,7.61-28.45,9.94S471.71,233.83,471.71,233.83Z"/><path class="cls-10" d="M234,97.9S212.78,147,157.21,187.52s-84.62,47.94-84.62,47.94-25.53-20.9-47.51-56.61C13.91,160.7-10.45,95.3,45.42,40s124.06-5.91,135,1.49C192.51,49.71,228.25,89.54,234,97.9Z"/><g class="cls-11"><path class="cls-12" d="M192.65,138.69S179,167.31,138.77,189s-57.52,25-57.52,25-29.71-11.62-39.16-23.28C14,156.28-1.88,72,42.09,48c17-9.29,80-.51,149.61,53.24C200.5,108,187.83,133.32,192.65,138.69Z"/></g><g class="cls-13"><path class="cls-14" d="M186.43,142.93s-13.65,28.62-53.88,50.31-57.52,25-57.52,25S45.37,206.61,35.91,195C7.85,160.54-2.74,87.33,37,56.72S166.54,97.2,175.22,102.2C184.84,107.77,181.65,137.58,186.43,142.93Z"/></g><path class="cls-15" d="M189.16,148.3s-13.65,28.62-53.88,50.31-57.52,25-57.52,25-34.2-22.46-44.58-33.26C9,165.25-.33,101.38,39.36,70.77s97.48,35.69,106.17,40.71C155.15,117.06,184.34,143,189.16,148.3Z"/><path class="cls-2" d="M257.15,117.26s-22.06-16.8-25.57-21.63-28-27.76-59.51-27.92S112,76.56,112,76.56,105,80.67,85.37,75,42.58,57.54,30.71,95.13s2.1,71.42,16.37,87.45S68.15,205,70.91,204.67c0,0-6.86,12.26-4,18a44,44,0,0,0,6.12,9.23L87.49,248Z"/><path class="cls-16" d="M158.09,182.58l-73.3,56.49L74.73,227.81s-1.55-2.93-3.56-6.91,2.09-12.06,2.09-12.06h0C74.63,208.79,118.87,206.85,158.09,182.58Z"/><path class="cls-17" d="M255,117l-66.1,52.44h0c-54.79,33.92-116.62,36.64-118.54,36.69h-.05c-2.68.33-9.29-5.88-23.22-21.52S19.54,136,31.16,99.42,65.31,74.29,84.45,79.77s25.9,1.52,25.9,1.52,27.86-8.82,58.57-8.64,56.83,20.83,60.26,25.56S255,117,255,117Z"/><path class="cls-2" d="M80.56,74.21s3.17,13.55-6,17.67S62.91,95.26,47.72,90c0,0-7.48-3.35-10.61-2.09s3.26-12.31,3.26-12.31,10.12-11,29.32-4.59S80.56,74.21,80.56,74.21Z"/><path class="cls-18" d="M158.4,27.08s-29.7,24.7-68.82,2.86c-21.13-8.3-33.35-3.19-33.35-3.19S102-12.15,158.4,27.08Z"/><path class="cls-19" d="M161.38,30.47a4.21,4.21,0,0,0-2.09,6.35c3.44,5.38,10.85,15.54,15.6,11.93,6.36-4.84,9-10.77,3.77-12.76C174.54,34.42,166.94,28.78,161.38,30.47Z"/><path class="cls-20" d="M193,112.15a16.62,16.62,0,0,0-5.25-22.9,16.86,16.86,0,0,0-2.31-1.2c-7.68-3.2-28.45,1.29-36.9,3.22A23.1,23.1,0,0,0,145,92.39c-21.31,8.74-18.38,39.79,3.79,46,8.23,2.32,20-2.41,27.58-7.76C180.18,128,183.91,126.74,193,112.15Z"/><path class="cls-21" d="M152.86,118.6c-1,3.33-5.88,7.54-9.22,6.55a6.29,6.29,0,0,1-4.26-7.8v0c1-3.34,5.33-6.85,8.66-5.87S153.83,115.27,152.86,118.6Z"/><path class="cls-12" d="M151.6,115.93a3.65,3.65,0,0,1-3.94,3.3c-2.26,0-3.49-3-3.33-4.77.23-3.3,2.48-3.39,4.77-2.73A3.74,3.74,0,0,1,151.6,115.93Z"/><path class="cls-22" d="M64.34,74.08a2.78,2.78,0,0,1-3.2,2.43c-1.89-.07-2.93-2.36-2.87-3.71.12-2.51,2-2.53,3.9-2A3,3,0,0,1,64.34,74.08Z"/><path class="cls-22" d="M56.28,71.51a1.15,1.15,0,0,1-1.27,1H55c-.78,0-1.22-1-1.19-1.54,0-1,.82-1,1.62-.82A1.23,1.23,0,0,1,56.28,71.51Z"/><path class="cls-23" d="M38,117s-5.85,35.18,11.12,58.92c8.11,11.3,14.47,17.75,18.91,21.4a20.09,20.09,0,0,0,13.74,4.6c8.08-.37,22.66-2.09,36.5-9,20.61-10.27,25.57-22.53,24.32-27s-39,11.41-44.35,10.58-23.38.92-36.29-13.79C47.7,146.49,44.35,119.83,38,117Z"/><path class="cls-2" d="M147.39,149.46a81.06,81.06,0,0,0-3.38,7.77,46.21,46.21,0,0,0-2.21,8.1,19,19,0,0,0,.18,8.14,9.18,9.18,0,0,0,.74,1.81,5.6,5.6,0,0,0,1.2,1.45,5.25,5.25,0,0,0,3.6,1.19h0a.35.35,0,0,1,.35.34h0a.35.35,0,0,1-.28.35,6.47,6.47,0,0,1-2.28,0,5.21,5.21,0,0,1-2.16-.93,7.29,7.29,0,0,1-2.56-3.83,14.42,14.42,0,0,1-.57-4.43,26.6,26.6,0,0,1,.42-4.36,40.77,40.77,0,0,1,2.48-8.29,60.4,60.4,0,0,1,3.85-7.67.35.35,0,0,1,.47-.14h0A.36.36,0,0,1,147.39,149.46Z"/><path class="cls-2" d="M282.48,132.75a17.83,17.83,0,0,0-.51-12.44,35.88,35.88,0,0,0-4.63-8.42c-3.88-4.72-19.54-22.78-29.84-28s-11.49-.87-12.42.47-38.85,55-80.75,89.65c-19.66,16.26-75.55,50.72-87.74,55.88s-7.75,16.55-7.75,16.55,10.26,22.81,25.62,33.1c7.15,4.78,18.15,8.22,22.75,6.73s57.94-15,96.76-45.79,49.37-50.39,55.67-58.81C265.24,174.2,276.78,150.25,282.48,132.75Z"/><path class="cls-12" d="M278.16,136.45a24.54,24.54,0,0,0-1.86-21,17.85,17.85,0,0,0-1.47-2.09c-3.57-4.33-17.91-20.88-27.36-25.64s-10.47-.62-11.38.43c-1.23,1.39-38.6,55.84-77,87.58-18,14.91-73,47.59-83,54.54-6.58,4.6-8.5,8.92-8.93,11.77a8.24,8.24,0,0,0,.83,4.83c2.35,4.78,10.9,21,22.84,29,6.55,4.38,20.37,4.79,30.71,1.56,4.25-1.33,50.42-17.92,86-46.15s45.27-46.19,51-53.91C263.31,171,272.63,152,278.16,136.45Z"/><path class="cls-24" d="M239.79,85.16a5.7,5.7,0,0,0-2.61-.77c-1,.09-19,25.24-20,26.66,0,0-.06.09-.09.12l-35.83,40.55-.11.12-30.84,28.34-.2.15-34.9,23-34.09,21.8-.22.15L69.8,233.45,66,237.85l-1,1.82a1.5,1.5,0,0,0,1.86,2.09c8.24-3.14,28.62-11.38,44.29-21.64,20.15-13.17,71.76-51.79,80.17-61s27-28.29,37.19-45.85,13.68-27.54,13.65-27.71A11.93,11.93,0,0,0,239.79,85.16Z"/><path class="cls-25" d="M201.65,235.72c-21.42,15.05-52.28,29.87-55.07,30.7-4,1.18-28.58,2.05-34.78-2-11.29-7.35-19.5-22.14-21.75-26.53a7.18,7.18,0,0,1-.84-4.38c.39-2.58,2.1-6.47,8.27-10.55,7-4.69,39-21.55,60.94-35.68-1.58,8.32-2.62,16-1.51,24.43.51,3.83,3.53,9,5.43,12.45,1.7,3.11,5,6,7.94,8.1C178.82,238.45,191.07,237.6,201.65,235.72Z"/><path class="cls-24" d="M180.59,249.52c-24.74,13.16-46,23.26-48.78,24.1-4,1.18-22.29,2.64-28.48-1.4C92,264.88,83.82,250.08,81.57,245.7a7.21,7.21,0,0,1-.84-4.39c.39-2.58,2.1-6.47,8.27-10.54,7-4.7,38.12-22.46,60.09-36.6a79.4,79.4,0,0,0-.69,25.32,31.49,31.49,0,0,0,3.23,11.17,30.24,30.24,0,0,0,7,8.06C165.43,244.66,172.1,246.18,180.59,249.52Z"/><path class="cls-26" d="M159,185.32q-10.68,8.6-21.84,16.58l-5.58,4-5.68,3.85-5.73,3.78-5.78,3.69c-7.72,4.89-15.66,9.47-23.73,13.79s-16.33,8.26-24.75,11.87l-.29-.63c8.38-3.68,16.5-7.81,24.53-12.14s15.86-9,23.61-13.86l5.77-3.67,5.72-3.75q5.7-3.82,11.35-7.67,11.26-7.8,22.38-15.81Z"/><polygon class="cls-26" points="190.6 159.14 182.22 166.92 182.12 166.82 190.1 158.65 190.6 159.14"/><path class="cls-27" d="M201.15,147.28c-3.36,3.84-7,7.73-10.8,11.64"/><path class="cls-26" d="M241.76,84.81a165.39,165.39,0,0,1-8,16.9q-4.46,8.24-9.57,16.05c-3.42,5.21-6.94,10.37-10.77,15.3-1.85,2.51-3.88,4.89-5.83,7.32-1,1.22-2,2.38-3,3.55l-3.1,3.49-.52-.46c2-2.41,4-4.8,5.88-7.23s3.86-4.89,5.69-7.38l2.8-3.74,2.69-3.8q1.37-1.89,2.65-3.83c.87-1.29,1.75-2.56,2.59-3.88l2.52-3.91c.83-1.31,1.62-2.65,2.44-4s1.59-2.67,2.38-4,1.55-2.69,2.3-4a182,182,0,0,0,8.3-16.66Z"/><path class="cls-24" d="M278,118.88s-9.93,41.48-25.77,61.54,4.29-.24,4.29-.24,18.79-32.11,21.64-44.91S278,118.88,278,118.88Z"/><path class="cls-2" d="M255,158.14s-8.85-9.67-16.75-8.6-22,10.6-21.73,23a18,18,0,0,0,9.95,16.26,17.62,17.62,0,0,0,12,1.59c13.07-2.8,49.26-11.87,71.08-30.1,0,0,4.49-4,5.58-6.35,0,0,8.32,1.9,13.37-4.84,2.35-3.14,2.3-6.86,1.58-10a15,15,0,0,0-9.21-10.75c-4-1.45-10.27-1.54-14.32,4.88,0,0-2.84,4.75-1.61,7.49S280.6,159.56,255,158.14Z"/><path class="cls-28" d="M255.18,159.36s-8.55-8.59-15.62-7.61-18.7,9-18.47,20.08c.16,7.92,4.41,11.7,8.67,14,3.31,1.78,9.12,2.4,12.78,1.6,11.72-2.54,37.56-8.93,62-25.94,0,0,9.61-7.35,10.58-9.43,0,0,7.67,1.88,12.19-4.19,2.09-2.79,1.47-6.82.83-9.6-1-4.36-4.71-7.12-8.3-8.54a8.12,8.12,0,0,0-6.6-.21,10.67,10.67,0,0,0-6.42,6.93c-.54,1.5-.86,3.05-.41,4C307.49,142.94,282.45,161.64,255.18,159.36Z"/><polygon class="cls-2" points="491.85 133.53 491.36 133.99 491.29 133.54 491.85 133.53"/><path class="cls-29" d="M412.41,170s2.1,4.42-.88,12.64c-3.13,8.64-4,11.32-4,11.32s-33.49-13.84-57.17-14.26-29-22.61-29-22.61,18-5.93,10.79-22.12-22.58-8.15-22.58-8.15-7.15,5.25-6.16,10.84-10.86,6.79-10.86,6.79-10-2.83-10.7-7.75,1.61-19.23,1.61-19.23,4.83-10.78,24.37-7.92,53.62,17.66,57.89,20.24C369.71,132.08,398.56,144.15,412.41,170Z"/><path class="cls-30" d="M411.32,174.11S372.84,143,346.75,129.87c-10.93-5.52-18.8-8.8-51.28-13.9-12.57-1.85,3.49-5.29,3.49-5.29a158.55,158.55,0,0,1,45,10.77c23.11,7.84,53.15,26.62,63.72,43.28C412.73,172.72,411.32,174.11,411.32,174.11Z"/><path class="cls-31" d="M423.42,181.58a3.16,3.16,0,0,0-1.47-2.79c-1.66-1-4.28-2.53-5.24-2.34-1.19.24-5.4,13-6.87,17.53a1.85,1.85,0,0,0,1,2.24l5.19,2.35a1.84,1.84,0,0,0,2.39-.82C420,194.74,423.2,187.85,423.42,181.58Z"/><path class="cls-31" d="M393.45,153s-12.83-13.08-14.95-11.71,2.25,6.38,2.25,6.38S393.57,156.64,393.45,153Z"/><path class="cls-31" d="M368.55,135.47c-1.45-.39-2.3,1.58-2,2.18.37.76,4.18,3,4.18,3S373.06,136.65,368.55,135.47Z"/><path class="cls-3" d="M368.71,151.24c-1.43,0-10.9,10.22-8.75,17.24,2,6.53,2.89-.48,3-1.52a1.55,1.55,0,0,1,.05-.23c.29-1,2.73-9.3,5.75-10.61C372,154.7,370.14,151.23,368.71,151.24Z"/><path class="cls-3" d="M378.67,158.82s-8,9.4-6.45,14.1,2.79,1.31,2.79,1.31a23.22,23.22,0,0,1,2.57-7.68C379.72,162.43,385.41,156.7,378.67,158.82Z"/><path class="cls-3" d="M391.06,166.47s-5.12,4.32-6.63,8.64,3.13,3.17,3.13,3.17,4-8.93,4.64-9.77C392.62,168,394.68,165.53,391.06,166.47Z"/><path class="cls-2" d="M367.34,150.57c-1.39,0-10.9,10.22-8.74,17.24,2,6.53,2.88-.49,3-1.52a.85.85,0,0,1,0-.23c.28-1,2.73-9.3,5.75-10.62C370.64,154,368.77,150.56,367.34,150.57Z"/><path class="cls-2" d="M377.3,158.15s-8.05,9.37-6.45,14.1,2.79,1.31,2.79,1.31a23.22,23.22,0,0,1,2.57-7.68C378.37,161.76,384,156,377.3,158.15Z"/><path class="cls-2" d="M389.69,165.8s-5.12,4.32-6.63,8.64S386,178.5,386,178.5s4.18-9.82,4.82-10.64C391.26,167.34,393.31,164.86,389.69,165.8Z"/><path class="cls-12" d="M361.81,171.1c.3-.45-1.76-.34-2.68-2.21-.37-.73-.63-1.4-.63-1.4a4.25,4.25,0,0,0,1.16,3.22C360.36,171.39,361.52,171.54,361.81,171.1Z"/><path class="cls-12" d="M374.17,175.23c.29-.44-1.77-.34-2.69-2.21-.36-.7-.63-1.4-.63-1.4a4.17,4.17,0,0,0,1.17,3.22C372.74,175.53,373.87,175.68,374.17,175.23Z"/><path class="cls-12" d="M387.57,178.42c.29-.44-3,.44-3.94-1.43-.37-.74-.8-1.71-.8-1.71a3.49,3.49,0,0,0,1,3.1C384.5,179.07,387.28,178.86,387.57,178.42Z"/><path class="cls-2" d="M252.58,157.05s-22.4,2.9-20.57,15,8.26,15.67,8.26,15.67l1.95.58s-5.16-8.55-5.59-10.36-4.88-11.17,4.76-14.87,12.51-4.89,12.51-4.89Z"/><path class="cls-12" d="M308.9,138.49s-15.55,21.91-53.27,22.39L251.44,159l-8.08,3.76s-3.59,7.72,15.64,3.57,40.69-13.57,45.23-18.8S313.22,139.31,308.9,138.49Z"/><path class="cls-2" d="M306.43,140.48s4.88-4.75,9.64,1a9,9,0,0,1,.57,11.22l-1.51-.7s3.9-13.5-9-10.61Z"/><path class="cls-2" d="M311.61,157.16s.12-5.71-.7-7.79a7.9,7.9,0,0,0-6.76-4.44c-3.16,0-2.85.89-2.85.89l2.66.23s6,1.85,5.83,8.29,1.63,3.39,1.63,3.39"/><path class="cls-2" d="M306.09,161.33s1.64-7.84-4-11.29-5.78-1.71-5.78-1.71l-.66.53s7.71,2.89,8.27,5.95,1.06,7,1.06,7Z"/><path class="cls-2" d="M261.45,158.39l-1.25.11s-11.46,4.39-10,13.77S255,185,255,185l2.64-.66-4.42-11.86s-2.06-9.55,8.37-13.33Z"/><path class="cls-2" d="M270.28,180.32s-4.56.69-6.1-3.54-2.49-8.2-.3-13.19,2.63-5.15,2.63-5.15l.7-.24s-2.65,8.56-2.37,11.6,1.65,8.38,5.13,9.91l.24.79"/><path class="cls-2" d="M286,173.64l-2,.86s-4.31-2.09-5.95-6.19-.65-12-.65-12l1.61-.59s-.66,8,.2,10.4S286,173.64,286,173.64Z"/><path class="cls-2" d="M286.25,153.37s-.14,6.28,2.34,9.77,3.18,4.88,4.7,6,2.65-1.09,2.65-1.09-6.6-4.24-7.5-9-.7-6-.7-6Z"/><path class="cls-2" d="M292.47,150.31s5.34,16.22,8.79,14l.42-.3s-4.43-6.05-5.34-8.37-2.87-5.94-2.87-5.94Z"/><path class="cls-12" d="M307.88,135.41s3.13-4.72,7.16-4.31,9.07,2.9,10.34,7.26c1.09,3.69-.65,9.77-1.91,10.09-1.55.4-1.69-6.81-1.69-6.81a29.76,29.76,0,0,0-3.15-5.29c-1.77-1.8-5.5-1.89-7.29-1.39S308.1,136.4,307.88,135.41Z"/><path class="cls-12" d="M247.24,154.91a16.5,16.5,0,0,0-10.06-1.22c-5.44,1.15-12,7.55-13.43,11.11s-2.16,7.81-.61,10.78,3.49-5.06,3.49-5.06,6.05-14,12-14.11C246.84,156.16,249.36,156,247.24,154.91Z"/></g></g></g></g></g></svg>